<?xml version="1.0" encoding="utf-8"?>
<!-- Generator: Adobe Illustrator 21.0.0, SVG Export Plug-In . SVG Version: 6.00 Build 0)  -->
<svg version="1.1" id="Слой_1" xmlns="http://www.w3.org/2000/svg" xmlns:xlink="http://www.w3.org/1999/xlink" x="0px" y="0px"
	 viewBox="0 0 48 48" style="enable-background:new 0 0 48 48;" xml:space="preserve">
<style type="text/css">
	.st0{fill:#FFFFFF;}
	.st1{fill:#313030;}
</style>
<g id="surface330264712">
	<g id="XMLID_1_">
		<g>
			<path class="st0" d="M40,24c0,8-5.9,14.6-13.6,15.8v-11h4.6l0.7-4.7h-5.4v-2.6c0-2,0.6-3.7,2.5-3.7h3v-4.1
				c-0.5-0.1-1.6-0.2-3.7-0.2c-4.3,0-6.9,2.3-6.9,7.5V24h-4.4v4.7h4.4v11C13.7,38.5,8,31.9,8,24c0-8.9,7.1-16,16-16S40,15.1,40,24z"
				/>
			<path class="st1" d="M24,4c11,0,20,9,20,20s-9,20-20,20S4,35,4,24S13,4,24,4z M26.4,39.8C34.1,38.6,40,32,40,24
				c0-8.9-7.1-16-16-16S8,15.1,8,24c0,7.9,5.7,14.5,13.3,15.8v-11h-4.4V24h4.4v-3.2c0-5.2,2.5-7.5,6.9-7.5c2.1,0,3.2,0.1,3.7,0.2
				v4.1h-3c-1.8,0-2.5,1.8-2.5,3.7V24h5.4l-0.7,4.7h-4.6V39.8z"/>
		</g>
		<g>
		</g>
	</g>
</g>
</svg>
