<?xml version="1.0" encoding="utf-8"?>
<!-- Generator: Adobe Illustrator 21.0.0, SVG Export Plug-In . SVG Version: 6.00 Build 0)  -->
<svg version="1.1" id="Слой_1" xmlns="http://www.w3.org/2000/svg" xmlns:xlink="http://www.w3.org/1999/xlink" x="0px" y="0px"
	 viewBox="0 0 96 96" style="enable-background:new 0 0 96 96;" xml:space="preserve">
<style type="text/css">
	.st0{fill:#FFFFFF;}
	.st1{fill:#313030;}
</style>
<g id="surface330289882">
	<g id="XMLID_1_">
		<g>
			<path class="st0" d="M48,34c7.8,0,14,6.2,14,14s-6.2,14-14,14s-14-6.2-14-14S40.2,34,48,34z"/>
			<path class="st0" d="M80,33v30c0,9.4-7.6,17-17,17H33c-9.4,0-17-7.6-17-17V33c0-9.4,7.6-17,17-17h30C72.4,16,80,23.6,80,33z
				 M72,28c0-2.2-1.8-4-4-4s-4,1.8-4,4s1.8,4,4,4S72,30.2,72,28z M68,48c0-11-9-20-20-20s-20,9-20,20s9,20,20,20S68,59,68,48z"/>
			<path class="st1" d="M86,33v30c0,12.7-10.3,23-23,23H33c-12.7,0-23-10.3-23-23V33c0-12.7,10.3-23,23-23h30C75.7,10,86,20.3,86,33
				z M80,63V33c0-9.4-7.6-17-17-17H33c-9.4,0-17,7.6-17,17v30c0,9.4,7.6,17,17,17h30C72.4,80,80,72.4,80,63z"/>
			<circle class="st1" cx="68" cy="28" r="4"/>
			<path class="st1" d="M48,28c11,0,20,9,20,20s-9,20-20,20s-20-9-20-20S37,28,48,28z M62,48c0-7.8-6.2-14-14-14s-14,6.2-14,14
				s6.2,14,14,14S62,55.8,62,48z"/>
		</g>
		<g>
		</g>
	</g>
</g>
</svg>
