<?xml version="1.0" encoding="utf-8"?>
<!-- Generator: Adobe Illustrator 21.0.0, SVG Export Plug-In . SVG Version: 6.00 Build 0)  -->
<svg version="1.1" id="Слой_1" xmlns="http://www.w3.org/2000/svg" xmlns:xlink="http://www.w3.org/1999/xlink" x="0px" y="0px"
	 viewBox="0 0 96 96" style="enable-background:new 0 0 96 96;" xml:space="preserve">
<style type="text/css">
	.st0{fill:#313030;}
	.st1{fill:#FFFFFF;}
</style>
<g id="surface330272454">
	<g id="XMLID_1_">
		<g>
			<path class="st0" d="M48,7.4c22.1,0,40,18.2,40,40.6S70.1,88.6,48,88.6S8,70.4,8,48S25.9,7.4,48,7.4z M80.7,48
				c0-18.3-14.7-33.2-32.7-33.2S15.3,29.7,15.3,48S29.9,81.2,48,81.2S80.7,66.3,80.7,48z"/>
			<path class="st0" d="M68.2,41.8c0,12.7-9.4,27.3-26.6,27.3c-5.3,0-12.2-1.9-14.3-4.3c0.7,0.1,1.5,0.1,2.2,0.1
				c4.4,0,8.4-1.5,11.6-4.1c-4.1-0.1-7.5-2.9-8.7-6.7c1.9,0.3,4.2-0.1,4.2-0.1s-7.3-1.3-7.5-9.5c2.1,1.3,4.2,1.2,4.2,1.2
				s-4.2-2.7-4.2-8c0-3.1,1.3-4.8,1.3-4.8c8,10.1,19.3,10,19.3,10s-0.2-1.4-0.2-2.2c0-5.3,4.2-9.6,9.3-9.6c2.7,0,5.1,1.2,6.8,3
				c2.1-0.4,4.1-1.2,5.9-2.3c-0.8,3.4-4.1,5.3-4.1,5.3s2.8-0.3,5.4-1.5c-1.3,1.9-2.8,3.6-4.7,5C68.2,40.9,68.2,41.3,68.2,41.8z"/>
			<path class="st1" d="M41.1,60.8c-3.2,2.6-7.2,4.1-11.6,4.1c-0.8,0-1.5,0-2.2-0.1c2.2,2.4,9.1,4.3,14.3,4.3
				c17.2,0,26.6-14.6,26.6-27.3c0-0.4,0-0.8,0-1.2c1.8-1.4,3.4-3,4.7-5c-2.6,1.2-5.4,1.5-5.4,1.5s3.3-2,4.1-5.3
				c-1.8,1.1-3.8,1.9-5.9,2.3c-1.7-1.9-4.1-3-6.8-3c-5.2,0-9.3,4.3-9.3,9.6c0,0.8,0.2,2.2,0.2,2.2s-11.3,0.1-19.3-10
				c0,0-1.2,1.7-1.3,4.8c-0.1,5.3,4.2,8,4.2,8s-2.1,0.1-4.2-1.2c0.2,8.3,7.5,9.5,7.5,9.5s-2.4,0.5-4.2,0.1
				C33.5,57.9,37,60.7,41.1,60.8z M48,14.8c18.1,0,32.7,14.9,32.7,33.2S66.1,81.2,48,81.2S15.3,66.3,15.3,48S29.9,14.8,48,14.8z"/>
		</g>
		<g>
		</g>
	</g>
</g>
</svg>
