<?xml version="1.0" encoding="utf-8"?>
<!-- Generator: Adobe Illustrator 21.0.0, SVG Export Plug-In . SVG Version: 6.00 Build 0)  -->
<svg version="1.1" id="Слой_1" xmlns="http://www.w3.org/2000/svg" xmlns:xlink="http://www.w3.org/1999/xlink" x="0px" y="0px"
	 viewBox="0 0 96 96" style="enable-background:new 0 0 96 96;" xml:space="preserve">
<style type="text/css">
	.st0{fill:#FFFFFF;}
	.st1{fill:#313030;}
</style>
<g id="surface329310834">
	<g id="XMLID_1_">
		<g>
			<path class="st0" d="M78,48v-4h-6v-6h-4v6h-6v4h6v6h4v-6H78z M48,16c17.7,0,32,14.3,32,32S65.7,80,48,80S16,65.7,16,48
				S30.3,16,48,16z M56,48c0-1.4-0.2-2.7-0.6-4H40v6h9.8c-0.9,4.6-5,8-9.8,8c-5.5,0-10-4.5-10-10s4.5-10,10-10
				c2.5,0,4.7,0.9,6.4,2.4l4.4-4.1C47.9,33.6,44.2,32,40,32c-8.8,0-16,7.2-16,16s7.2,16,16,16S56,56.8,56,48z"/>
			<polygon class="st1" points="78,44 78,48 72,48 72,54 68,54 68,48 62,48 62,44 68,44 68,38 72,38 72,44 			"/>
			<path class="st1" d="M48,8c22.1,0,40,17.9,40,40S70.1,88,48,88S8,70.1,8,48S25.9,8,48,8z M80,48c0-17.7-14.3-32-32-32
				S16,30.3,16,48s14.3,32,32,32S80,65.7,80,48z"/>
			<path class="st1" d="M55.4,44c0.3,1.3,0.6,2.6,0.6,4c0,8.8-7.2,16-16,16s-16-7.2-16-16s7.2-16,16-16c4.2,0,7.9,1.6,10.8,4.2
				l-4.4,4.1c-1.7-1.5-4-2.4-6.4-2.4c-5.5,0-10,4.5-10,10s4.5,10,10,10c4.8,0,8.9-3.4,9.8-8H40v-6H55.4z"/>
		</g>
		<g>
		</g>
	</g>
</g>
</svg>
